
>>
>> "C:\Program Files (x86)\ffmpegyag\bin\ffmpeg.exe" -i "C:\Users\Public\Documents\Unity Projects\test\Assets\Resources\B-left.avi" -strict experimental -f mov -map_chapters -1 -map 0:0 -sn -an -b:v:0 1800k -mbd:v:0 rd -mbcmp:v:0 rd -cmp:v:0 rd -precmp:v:0 rd -subcmp:v:0 rd -trellis:v:0 1 -y "C:\Users\Public\Documents\Unity Projects\test\Assets\Resources\B-left.mov"
>>

ffmpeg version 2.5.2 Copyright (c) 2000-2014 the FFmpeg developers
  built on Dec 30 2014 17:18:09 with gcc 4.9.2 (GCC)
  configuration: --disable-static --enable-shared --enable-gpl --enable-version3 --disable-w32threads --enable-avisynth --enable-bzlib --enable-fontconfig --enable-frei0r --enable-gnutls --enable-iconv --enable-libass --enable-libbluray --enable-libbs2b --enable-libcaca --enable-libfreetype --enable-libgme --enable-libgsm --enable-libilbc --enable-libmodplug --enable-libmp3lame --enable-libopencore-amrnb --enable-libopencore-amrwb --enable-libopenjpeg --enable-libopus --enable-librtmp --enable-libschroedinger --enable-libsoxr --enable-libspeex --enable-libtheora --enable-libtwolame --enable-libvidstab --enable-libvo-aacenc --enable-libvo-amrwbenc --enable-libvorbis --enable-libvpx --enable-libwavpack --enable-libwebp --enable-libx264 --enable-libx265 --enable-libxavs --enable-libxvid --enable-lzma --enable-decklink --enable-zlib
  libavutil      54. 15.100 / 54. 15.100
  libavcodec     56. 13.100 / 56. 13.100
  libavformat    56. 15.102 / 56. 15.102
  libavdevice    56.  3.100 / 56.  3.100
  libavfilter     5.  2.103 /  5.  2.103
  libswscale      3.  1.101 /  3.  1.101
  libswresample   1.  1.100 /  1.  1.100
  libpostproc    53.  3.100 / 53.  3.100
Input #0, avi, from 'C:\Users\Public\Documents\Unity Projects\test\Assets\Resources\B-left.avi':
  Metadata:
    date            : 2018-07-20T12:52:45.884325
    encoder         : Adobe After Effects CC 2018 (Windows)
  Duration: 00:00:13.81, start: 0.000000, bitrate: 372885 kb/s
    Stream #0:0: Video: rawvideo, bgr24, 960x540, 373777 kb/s, 29.97 fps, 29.97 tbr, 29.97 tbn, 29.97 tbc
No pixel format specified, yuv444p for H.264 encoding chosen.
Use -pix_fmt yuv420p for compatibility with outdated media players.
[libx264 @ 02cedf00] using cpu capabilities: MMX2 SSE2Fast SSSE3 SSE4.2 AVX FMA3 AVX2 LZCNT BMI2
[libx264 @ 02cedf00] profile High 4:4:4 Predictive, level 3.1, 4:4:4 8-bit
[libx264 @ 02cedf00] 264 - core 144 r2525 40bb568 - H.264/MPEG-4 AVC codec - Copyleft 2003-2014 - http://www.videolan.org/x264.html - options: cabac=1 ref=3 deblock=1:0:0 analyse=0x3:0x113 me=hex subme=7 psy=1 psy_rd=1.00:0.00 mixed_ref=1 me_range=16 chroma_me=0 trellis=1 8x8dct=1 cqm=0 deadzone=21,11 fast_pskip=1 chroma_qp_offset=4 threads=6 lookahead_threads=1 sliced_threads=0 nr=0 decimate=1 interlaced=0 bluray_compat=0 constrained_intra=0 bframes=3 b_pyramid=2 b_adapt=1 b_bias=0 direct=1 weightb=1 open_gop=0 weightp=2 keyint=250 keyint_min=25 scenecut=40 intra_refresh=0 rc_lookahead=40 rc=abr mbtree=1 bitrate=1800 ratetol=1.0 qcomp=0.60 qpmin=0 qpmax=69 qpstep=4 ip_ratio=1.40 aq=1:1.00
Output #0, mov, to 'C:\Users\Public\Documents\Unity Projects\test\Assets\Resources\B-left.mov':
  Metadata:
    date            : 2018-07-20T12:52:45.884325
    encoder         : Lavf56.15.102
    Stream #0:0: Video: h264 (libx264) (avc1 / 0x31637661), yuv444p, 960x540, q=-1--1, 1800 kb/s, 29.97 fps, 30k tbn, 29.97 tbc
    Metadata:
      encoder         : Lavc56.13.100 libx264
Stream mapping:
  Stream #0:0 -> #0:0 (rawvideo (native) -> h264 (libx264))
Press [q] to stop, [?] for help
video:3038kB audio:0kB subtitle:0kB other streams:0kB global headers:0kB muxing overhead: 0.187606%
[libx264 @ 02cedf00] frame I:2     Avg QP:15.07  size: 24628
[libx264 @ 02cedf00] frame P:104   Avg QP:11.56  size: 12873
[libx264 @ 02cedf00] frame B:308   Avg QP:13.90  size:  5591
[libx264 @ 02cedf00] consecutive B-frames:  0.7%  0.0%  0.7% 98.6%
[libx264 @ 02cedf00] mb I  I16..4: 26.4% 60.7% 12.9%
[libx264 @ 02cedf00] mb P  I16..4:  3.5%  8.4%  4.5%  P16..4: 33.7% 21.9% 15.1%  0.0%  0.0%    skip:13.0%
[libx264 @ 02cedf00] mb B  I16..4:  0.5%  1.0%  0.4%  B16..8: 35.7% 13.4%  1.8%  direct: 2.8%  skip:44.3%  L0:48.0% L1:45.6% BI: 6.4%
[libx264 @ 02cedf00] final ratefactor: 12.14
[libx264 @ 02cedf00] 8x8 transform intra:52.5% inter:79.4%
[libx264 @ 02cedf00] coded y,u,v intra: 48.5% 31.4% 30.6% inter: 13.8% 19.3% 15.5%
[libx264 @ 02cedf00] i16 v,h,dc,p: 27% 12%  7% 55%
[libx264 @ 02cedf00] i8 v,h,dc,ddl,ddr,vr,hd,vl,hu: 18% 16% 23% 10%  5%  5%  6%  9%  8%
[libx264 @ 02cedf00] i4 v,h,dc,ddl,ddr,vr,hd,vl,hu: 24% 18% 22%  7% 10%  6%  6%  5%  2%
[libx264 @ 02cedf00] Weighted P-Frames: Y:0.0% UV:0.0%
[libx264 @ 02cedf00] ref P L0: 57.3%  2.1% 27.7% 12.9%
[libx264 @ 02cedf00] ref B L0: 75.5% 18.5%  5.9%
[libx264 @ 02cedf00] ref B L1: 90.0% 10.0%
[libx264 @ 02cedf00] kb/s:1801.14
